<svg width="94" height="130" viewBox="0 0 94 130" fill="none" xmlns="http://www.w3.org/2000/svg">
<path d="M34.0161 12.6705V18.175H19.9406V1.12524H34.0161V7.15774H25.9731V12.6705H34.0161ZM48.4854 7.15774H54.1084V1.12524H40.0314C40.0314 1.12524 40.0314 4.15324 40.0314 7.15774C41.9146 9.04099 42.8966 9.94249 45.6204 12.6662C44.0281 12.6662 40.0314 12.6715 40.0314 12.6715V18.175H54.1084V12.6705L48.4854 7.15774ZM68.4366 7.15774H74.0591V1.12524H59.9826C59.9826 1.12524 59.9826 4.15324 59.9826 7.15774C61.8654 9.04099 62.8479 9.94249 65.5714 12.6662C63.9801 12.6662 59.9826 12.6715 59.9826 12.6715V18.175H74.0594V12.6705L68.4366 7.15774ZM92.5989 26.278L84.0481 118.899L46.9999 128.874L9.95087 118.899L1.40137 26.278H92.5989ZM75.3694 45.111H46.9664H18.0614L19.4436 56.2957H46.9664H48.5124L46.9664 56.9392L20.4496 67.9835L21.3291 78.916L46.9664 78.9992L60.7071 79.043L59.8269 93.6207L46.9664 97.2417V97.2302L46.8609 97.2592L34.4399 94.1237L33.6861 85.075H33.6451H22.1239H22.0834L23.5914 102.544L46.9664 109.456V109.444L47.0084 109.456L70.2584 102.67L73.2751 67.9837H46.9664H46.9014L46.9664 67.9557L74.2379 56.296L75.3694 45.111Z" fill="#DA2626" stroke="#DA2626"/>
</svg>
