<svg width="124" height="124" viewBox="0 0 124 124" fill="none" xmlns="http://www.w3.org/2000/svg">
<path d="M119.692 56.652L67.312 4.27599C65.912 2.87999 63.98 2.01599 61.844 2.01599C59.708 2.01599 57.776 2.87999 56.376 4.27599L45.524 15.148L59.32 28.944C60.2 28.636 61.212 28.46 62.268 28.46C67.344 28.46 71.456 32.572 71.456 37.648C71.456 38.724 71.272 39.752 70.932 40.712L70.952 40.648L84.24 53.944C85.128 53.628 86.156 53.444 87.224 53.444C92.296 53.444 96.408 57.556 96.408 62.628C96.408 67.7 92.296 71.812 87.224 71.812C82.152 71.812 78.04 67.7 78.04 62.628C78.04 61.376 78.292 60.184 78.744 59.096L78.72 59.156L66.28 46.78V79.396C69.336 80.936 71.396 84.048 71.396 87.64C71.396 92.72 67.276 96.84 62.196 96.84C57.116 96.84 52.996 92.72 52.996 87.64C52.996 85.104 54.02 82.812 55.68 81.148C56.524 80.304 57.528 79.62 58.644 79.14L58.704 79.116V46.18C55.336 44.764 53.016 41.488 53.016 37.676C53.016 36.396 53.276 35.18 53.748 34.072L53.724 34.132L40.168 20.512L4.248 56.408C2.856 57.812 2 59.744 2 61.88C2 64.016 2.86 65.948 4.252 67.352L56.636 119.72C58.032 121.12 59.964 121.984 62.1 121.984C64.236 121.984 66.164 121.12 67.564 119.72L119.7 67.584C121.1 66.188 121.968 64.252 121.968 62.12C121.968 59.988 121.1 58.052 119.7 56.656L119.692 56.652Z" fill="#DA2626" stroke="#DA2626" stroke-width="4"/>
</svg>
