<svg width="129" height="128" viewBox="0 0 129 128" fill="none" xmlns="http://www.w3.org/2000/svg">
<path d="M64.98 0C29.62 0 0.97998 29.3811 0.97998 65.6193C0.97998 94.6121 19.316 119.208 44.74 127.887C47.94 128.505 49.1133 126.476 49.1133 124.731C49.1133 123.173 49.06 119.044 49.0333 113.576C31.2306 117.541 27.476 104.772 27.476 104.772C24.564 97.1877 20.3666 95.1644 20.3666 95.1644C14.5533 91.0906 20.8093 91.1781 20.8093 91.1781C27.236 91.6374 30.6226 97.9369 30.6226 97.9369C36.3293 107.971 45.5933 105.073 49.2466 103.394C49.8226 99.1508 51.476 96.2581 53.3107 94.6176C39.0973 92.9498 24.1533 87.3229 24.1533 62.1853C24.1533 55.0218 26.6493 49.1653 30.74 44.5719C30.02 42.915 27.86 36.2437 31.3 27.2047C31.3 27.2047 36.66 25.4439 48.9 33.9307C54.1205 32.4745 59.5057 31.7317 64.916 31.7215C70.356 31.7488 75.8227 32.4761 80.932 33.9307C93.092 25.4439 98.452 27.2047 98.452 27.2047C101.908 36.2437 99.748 42.915 99.092 44.5719C103.172 49.1653 105.652 55.0218 105.652 62.1853C105.652 87.394 90.6813 92.9443 76.4253 94.5629C78.7133 96.5971 80.7453 100.589 80.7453 106.713C80.7453 115.495 80.6653 122.55 80.6653 124.682C80.6653 126.405 81.7853 128.477 85.0653 127.832C110.66 119.181 128.98 94.5848 128.98 65.6193C128.98 29.3811 100.324 0 64.98 0Z" fill="#DA2626"/>
</svg>
