<svg width="92" height="130" viewBox="0 0 92 130" fill="none" xmlns="http://www.w3.org/2000/svg">
<path d="M9.1672 1.12524H14.9252V6.81424H20.1925V1.12524H25.951V18.3525H20.193V12.5835H14.9257V18.3525H9.1677V1.12524H9.1672ZM33.5227 6.83824H28.454V1.12524H44.3525V6.83824H39.2812V18.3525H33.5232V6.83824H33.5227ZM46.8755 1.12524H52.8805L56.5732 7.17849L60.263 1.12524H66.2687V18.3525H60.5342V9.81399L56.573 15.939H56.4742L52.5102 9.81399V18.3525H46.8755V1.12524ZM69.135 1.12524H74.8945V12.6585H82.9922V18.3525H69.135V1.12524ZM0.746704 26.2315L8.9832 118.615L45.9442 128.875L83.0077 118.6L91.253 26.2312L0.746704 26.2315ZM74.0722 48.155L73.5565 53.8992L73.33 56.4462H73.2927H46H45.9605H29.9715L31.007 68.048H45.9605H46H69.245H72.2985L72.022 71.091L69.3595 100.921L69.189 102.834L46 109.261V109.263L45.948 109.278L22.7382 102.834L21.1505 85.0442H26.393H32.5247L33.3315 94.0807L45.95 97.4887L45.9605 97.4855V97.4845L58.5982 94.0745L59.9125 79.3792H46H45.9605H20.6445L17.8597 48.155L17.5885 45.1157H45.9605H46H74.3435L74.0722 48.155Z" fill="#DA2626" stroke="#DA2626"/>
</svg>
