<svg width="128" height="128" viewBox="0 0 128 128" fill="none" xmlns="http://www.w3.org/2000/svg">
<path d="M0 0V128H128V0H0ZM69.6571 99.8286C69.6571 112.286 62.3429 117.971 51.6857 117.971C42.0571 117.971 36.4857 113 33.6286 106.971L43.4286 101.057C45.3143 104.4 47.0286 107.229 51.1714 107.229C55.1143 107.229 57.6286 105.686 57.6286 99.6571V58.7714H69.6571V99.8286ZM98.1143 117.971C86.9429 117.971 79.7143 112.657 76.2 105.686L86 100.029C88.5714 104.229 91.9429 107.343 97.8571 107.343C102.829 107.343 106.029 104.857 106.029 101.4C106.029 97.2857 102.771 95.8286 97.2571 93.4L94.2571 92.1143C85.5714 88.4286 79.8286 83.7714 79.8286 73.9714C79.8286 64.9429 86.7143 58.0857 97.4286 58.0857C105.086 58.0857 110.571 60.7429 114.514 67.7143L105.143 73.7143C103.086 70.0286 100.857 68.5714 97.4 68.5714C93.8857 68.5714 91.6571 70.8 91.6571 73.7143C91.6571 77.3143 93.8857 78.7714 99.0572 81.0286L102.057 82.3143C112.286 86.6857 118.029 91.1714 118.029 101.229C118.029 112.029 109.514 117.971 98.1143 117.971Z" fill="#DA2626"/>
</svg>
