<svg width="69" height="128" viewBox="0 0 69 128" fill="none" xmlns="http://www.w3.org/2000/svg">
<path d="M65.9225 100.938H65.4404V100.668H66.7386V100.938H66.2594V102.284H65.9225V100.938ZM68.5118 101.008H68.5042L68.0262 102.284H67.8075L67.3328 101.008H67.3272V102.284H67.0094V100.669H67.477L67.9171 101.813L68.3558 100.669H68.8218V102.284H68.5116L68.5118 101.008Z" fill="#DA2626"/>
<path d="M22.7538 67.898C22.7538 67.898 19.3987 69.8491 25.1415 70.5093C32.0987 71.303 35.6545 71.1892 43.3214 69.7381C43.3214 69.7381 45.3371 71.002 48.1522 72.0967C30.965 79.4628 9.25423 71.67 22.7538 67.898ZM20.6537 58.2856C20.6537 58.2856 16.8906 61.0711 22.6376 61.6656C30.0696 62.4323 35.9387 62.495 46.0946 60.5394C46.0946 60.5394 47.4995 61.9635 49.7083 62.7423C28.9278 68.8187 5.78225 63.2215 20.6537 58.2856Z" fill="#DA2626"/>
<path d="M38.3589 41.98C42.5938 46.8557 37.2465 51.2435 37.2465 51.2435C37.2465 51.2435 47.9991 45.6924 43.0609 38.7411C38.4486 32.2583 34.9115 29.0377 54.0597 17.9324C54.06 17.9321 24.0034 25.4388 38.3589 41.98Z" fill="#DA2626"/>
<path d="M61.0903 75.0078C61.0903 75.0078 63.5731 77.0537 58.3559 78.6362C48.4352 81.6415 17.065 82.549 8.35053 78.7561C5.21789 77.3931 11.0925 75.5019 12.9404 75.105C14.8676 74.6871 15.9689 74.765 15.9689 74.765C12.4851 72.3108 -6.54903 79.5837 6.30052 81.6668C41.3431 87.3497 70.1801 79.1078 61.0903 75.0078ZM24.3673 48.3261C24.3673 48.3261 8.4104 52.1161 18.7165 53.4924C23.0681 54.0751 31.7429 53.9432 39.8229 53.2662C46.4266 52.7092 53.0577 51.525 53.0577 51.525C53.0577 51.525 50.7292 52.5222 49.0446 53.6723C32.8406 57.9342 1.53766 55.9514 10.5494 51.5922C18.1706 47.9082 24.3673 48.3261 24.3673 48.3261ZM52.992 64.3263C69.464 55.7668 61.8482 47.5409 56.5321 48.6494C55.2292 48.9206 54.6482 49.1555 54.6482 49.1555C54.6482 49.1555 55.1321 48.3978 56.0555 48.0698C66.572 44.3726 74.6599 58.9744 52.6607 64.7579C52.6607 64.7579 52.916 64.5303 52.992 64.3263Z" fill="#DA2626"/>
<path d="M43.0609 0C43.0609 0 52.1833 9.12531 34.4086 23.1581C20.1551 34.4143 31.1584 40.8325 34.4027 48.1657C26.0829 40.6588 19.9771 34.0508 24.0734 27.9006C30.0854 18.8725 46.7416 14.4954 43.0609 0Z" fill="#DA2626"/>
<path d="M25.986 87.5206C41.7971 88.5327 66.0768 86.959 66.6516 79.4779C66.6516 79.4779 65.5465 82.3138 53.5846 84.5664C40.0897 87.1058 23.4452 86.8095 13.5732 85.1819C13.5737 85.1814 15.5944 86.8542 25.986 87.5206Z" fill="#DA2626"/>
<path d="M23.3947 116.107C21.9032 117.401 20.3279 118.127 18.9142 118.127C16.8963 118.127 15.8061 116.917 15.8061 114.977C15.8061 112.877 16.9744 111.343 21.6604 111.343H23.3945L23.3947 116.107ZM27.5103 120.751V106.377C27.5103 102.705 25.4161 100.282 20.3667 100.282C17.4188 100.282 14.8366 101.01 12.7379 101.938L13.3437 104.483C14.9961 103.876 17.1351 103.312 19.2346 103.312C22.1434 103.312 23.3947 104.483 23.3947 106.904V108.721H21.9429C14.8757 108.721 11.6876 111.464 11.6876 115.582C11.6876 119.136 13.7885 121.156 17.7442 121.156C20.2869 121.156 22.185 120.106 23.9593 118.569L24.2814 120.751L27.5103 120.751ZM41.2456 120.751H36.1127L29.935 100.646H34.4179L38.251 112.998L39.1031 116.713C41.0424 111.342 42.4142 105.893 43.1002 100.646H47.4608C46.2922 107.266 44.1899 114.533 41.2456 120.751ZM60.9374 116.107C59.443 117.401 57.8651 118.127 56.4512 118.127C54.4369 118.127 53.3439 116.917 53.3439 114.977C53.3439 112.877 54.5145 111.343 59.2002 111.343H60.9374V116.107ZM65.0526 120.751V106.377C65.0526 102.705 62.9533 100.282 57.9094 100.282C54.9596 100.282 52.3765 101.01 50.2787 101.938L50.8838 104.483C52.5367 103.876 54.6797 103.312 56.7775 103.312C59.6842 103.312 60.9374 104.483 60.9374 106.904V108.721H59.483C52.4139 108.721 49.227 111.464 49.227 115.582C49.227 119.136 51.3263 121.156 55.2812 121.156C57.8256 121.156 59.723 120.106 61.5001 118.569L61.8234 120.751L65.0526 120.751ZM7.17492 124.165C6.00166 125.878 4.10665 127.233 2.03203 128L0 125.609C1.5791 124.798 2.93339 123.49 3.56262 122.271C4.10689 121.187 4.33217 119.79 4.33217 116.449V93.496H8.7048V116.134C8.70457 120.601 8.34748 122.405 7.17492 124.165Z" fill="#DA2626"/>
</svg>
