<svg width="24" height="24" viewBox="0 0 24 24" fill="none" xmlns="http://www.w3.org/2000/svg">
<path d="M15 0C14.1703 0 13.5 0.670312 13.5 1.5C13.5 2.32969 14.1703 3 15 3H18.8766L9.43594 12.4406C8.85 13.0266 8.85 13.9781 9.43594 14.5641C10.0219 15.15 10.9734 15.15 11.5594 14.5641L21 5.12344V9C21 9.82969 21.6703 10.5 22.5 10.5C23.3297 10.5 24 9.82969 24 9V1.5C24 0.670312 23.3297 0 22.5 0H15ZM3.75 4.5C1.67812 4.5 0 6.17812 0 8.25V20.25C0 22.3219 1.67812 24 3.75 24H15.75C17.8219 24 19.5 22.3219 19.5 20.25V16.5C19.5 15.6703 18.8297 15 18 15C17.1703 15 16.5 15.6703 16.5 16.5V20.25C16.5 20.6625 16.1625 21 15.75 21H3.75C3.3375 21 3 20.6625 3 20.25V8.25C3 7.8375 3.3375 7.5 3.75 7.5H7.5C8.32969 7.5 9 6.82969 9 6C9 5.17031 8.32969 4.5 7.5 4.5H3.75Z" fill="#DA2626"/>
</svg>
