<svg width="129" height="128" viewBox="0 0 129 128" fill="none" xmlns="http://www.w3.org/2000/svg">
<path d="M124.682 58.5938C124.332 58.5561 123.926 58.5309 123.517 58.5309C121.451 58.5309 119.475 59.0966 117.657 60.1273L117.768 60.0708C117.234 60.385 116.381 60.385 116.308 61.3844C116.603 61.7992 116.645 62.4842 116.893 63.0625C117.392 64.3069 118.007 65.3628 118.724 66.2427L118.737 66.2616C119.484 67.1226 120.23 67.9586 121.016 68.6939C122.403 69.9509 123.978 70.6989 125.335 71.9622C126.107 72.6975 126.897 73.634 127.682 74.4196C128.071 74.8093 128.322 75.5195 128.822 75.7709V75.6138C128.579 75.1424 128.502 74.4573 128.263 73.9357C127.904 73.4077 127.55 72.9364 127.196 72.421C126.137 70.3783 124.912 68.6311 123.538 67.1729L123.487 67.1226C122.347 65.9788 119.851 64.3761 119.381 62.4465L119.313 62.3334C120.243 62.1386 121.071 61.8494 121.869 61.4598L121.767 61.5038C122.979 61.0324 124.089 61.133 125.339 60.6741C125.903 60.4604 126.474 60.2028 127.046 59.9388V59.4674C126.406 58.5246 125.928 57.2425 125.267 56.3626C123.521 54.0999 121.596 51.9756 119.569 50.0649L119.377 49.8952C118.259 48.8456 116.837 48.1668 115.659 47.2743C115.233 46.9601 114.52 46.8029 114.272 46.275C113.718 45.1123 113.227 43.7798 112.838 42.372L112.804 42.2337C111.757 39.242 110.784 36.1979 109.885 33.1015C109.27 30.6943 108.66 28.7207 107.973 26.8101L108.071 27.1055C104.716 18.8154 100.043 12.1533 94.4648 7.60913L94.2813 7.47086C92.9625 6.50925 91.4303 5.76132 89.8213 5.34022L89.7146 5.31508C88.8226 5.25223 87.9348 5.15795 87.0471 5.10138C86.424 4.51058 85.8862 3.90722 85.3826 3.241L85.3954 3.25985C83.3681 1.37433 78.1228 -2.71098 76.6291 2.69419C75.6688 6.10071 78.0546 9.46324 78.8783 11.1916C79.5355 12.3418 80.133 13.6302 80.6495 14.9941L80.6921 15.1198C80.9439 16.0312 81.0122 16.9676 81.2641 17.9167C81.8829 20.7575 82.5103 23.0893 83.223 25.3457L83.1121 24.956C83.5346 26.2067 83.9742 27.2689 84.465 28.2745L84.4309 28.1991C84.7168 28.771 85.2076 29.0413 85.3229 29.9841C84.9558 31.1217 84.6699 32.4415 84.512 33.818L84.5034 33.906C84.0425 35.9926 83.7736 38.3998 83.7736 40.895C83.7736 44.798 84.4266 48.4748 85.5789 51.7053L85.5363 51.5796C86.1082 52.8806 87.4654 55.7718 89.2835 54.6656C90.884 53.7228 90.5298 50.7374 90.9907 48.1102C91.0974 47.4817 91.0291 47.0669 91.2468 46.6395V46.759C91.7461 48.2359 92.2497 49.6438 92.7064 51.1208C93.9953 53.8548 95.5275 56.1803 97.2774 58.0973L97.3329 58.1538C98.1865 59.0966 98.8651 60.7307 99.932 61.3089V61.1518H99.851C99.6077 60.7621 99.3388 60.4165 99.0443 60.1211L99.0272 60.1085C98.3657 59.1531 97.7511 58.1224 97.1963 57.0351L97.1621 56.9659C95.7708 54.2005 94.4477 51.0705 93.2997 47.7834L93.1759 47.4C92.5912 45.7533 92.1004 43.9747 91.6309 42.3468C91.4175 41.7183 91.4175 40.7755 91.059 40.4613C90.4273 41.5046 89.8597 42.6674 89.386 43.9181L89.3518 44.0187C88.8055 46.363 88.447 49.0719 88.3531 51.8813V51.9504C88.208 52.007 88.2806 51.9504 88.208 52.0636C87.0685 51.655 86.6758 49.9141 86.249 48.4496C85.6686 46.1493 85.3314 43.4844 85.3314 40.7127C85.3314 38.4752 85.5491 36.3131 85.9588 34.2705L85.9332 34.4339C86.185 33.334 87.252 29.8646 86.8252 28.8087C86.6033 27.8094 85.899 27.2375 85.5064 26.4267C85.0412 25.4588 84.6144 24.3589 84.2601 23.1962L84.226 23.0705C83.3724 20.1353 82.9456 16.8796 82.0195 13.9445C81.4604 12.4109 80.8714 11.0911 80.2099 9.8592L80.2397 9.91576C79.5355 8.71531 78.8868 7.37659 78.3234 5.95616L78.2765 5.83045C78.1015 5.25851 77.8497 4.30946 78.1314 3.68095C78.1826 3.31642 78.3789 3.03359 78.6307 2.97702C79.1002 2.41137 80.4233 3.14672 80.8842 3.46098C82.2371 4.21519 83.4023 5.10139 84.4821 6.14471L84.4138 6.08186C84.9131 6.59724 85.4552 7.59656 86.0954 7.85425H86.8423C87.9818 8.22507 89.2707 7.96739 90.3377 8.4262C92.2967 9.40039 93.9911 10.6197 95.5574 12.1155L95.4678 12.0338C100.18 16.5151 103.952 22.5739 106.505 29.7326L106.59 29.9903C107.017 31.1971 107.205 32.3095 107.593 33.5666C108.34 36.156 109.262 38.7769 110.021 41.2784C110.743 43.9684 111.596 46.2939 112.612 48.4371L112.561 48.3239C113.094 49.4238 115.237 49.9958 116.197 50.5677C117.209 51.0894 118.02 51.5859 118.805 52.1453L118.647 52.0447C119.872 53.1446 121.067 54.4016 122.219 55.6084C122.804 56.2054 124.584 57.519 124.69 58.5749L124.682 58.5938ZM74.6445 104.557C74.6445 104.651 74.6487 104.758 74.6487 104.865C74.6487 108.372 73.586 111.508 71.9044 113.62L71.8916 113.632C70.0479 115.845 67.6706 117.19 65.08 117.19C64.8794 117.19 64.6788 117.183 64.4825 117.165H64.5081C61.3541 117.102 58.4519 115.593 56.0746 113.073L56.1173 113.117L57.3806 109.377C59.2116 110.886 61.3882 111.822 63.7014 111.954H63.7271C63.8423 111.967 63.9746 111.973 64.1112 111.973C65.5281 111.973 66.8469 111.319 67.9267 110.207L67.9054 110.226C68.8827 109.132 69.5059 107.423 69.5059 105.499C69.5059 105.462 69.5059 105.43 69.5059 105.393V105.399C69.5059 102.809 68.2809 100.61 66.0488 98.7618C63.9789 97.0899 59.8475 93.6017 59.8475 93.6017C57.8074 91.7413 56.4715 88.4668 56.4715 84.7335C56.4715 84.6015 56.4715 84.4695 56.4758 84.3375V84.3564C56.4715 84.2369 56.4715 84.0987 56.4715 83.9604C56.4715 80.7236 57.4404 77.8199 58.9726 75.8463L58.9811 75.8338C60.6114 73.7974 62.7412 72.5592 65.0672 72.5592C65.2166 72.5592 65.3617 72.5655 65.5068 72.5718H65.4854C65.5239 72.5718 65.5708 72.5718 65.6177 72.5718C68.345 72.5718 70.8844 73.7723 73.0013 75.8401L72.9501 75.7961L71.8148 79.5357C70.146 78.4295 68.1999 77.7633 66.1512 77.7319H66.1427C66.0403 77.7193 65.925 77.713 65.8055 77.713C64.6105 77.713 63.5094 78.329 62.6473 79.3597L62.6558 79.3471C61.8492 80.3339 61.337 81.8109 61.3327 83.4639C61.3327 86.0408 62.579 88.2531 64.8837 90.1386C66.9792 91.8293 71.213 95.3993 71.213 95.3993C73.2958 97.2031 74.6743 100.484 74.6743 104.242C74.6743 104.356 74.6743 104.475 74.6701 104.588V104.569L74.6445 104.557ZM83.4876 107.894C82.3225 104.469 81.6439 100.434 81.6439 96.166C81.6439 95.4935 81.661 94.8273 81.6951 94.1737L81.6908 94.2616C81.6908 83.3214 83.9486 77.8492 88.4641 77.845C88.575 77.8324 88.7073 77.8261 88.8439 77.8261C90.8712 77.8261 92.6509 79.3848 93.6624 81.7355L93.6752 81.7669C94.8318 85.1734 95.5105 89.1959 95.5105 93.4446C95.5105 94.0982 95.4934 94.7456 95.4635 95.3867L95.4678 95.2987C95.4678 106.327 93.21 111.845 88.6945 111.854C88.5793 111.866 88.447 111.872 88.3147 111.872C86.2874 111.872 84.5034 110.314 83.4919 107.963L83.4791 107.932L83.4876 107.894ZM101.046 117.648L95.6257 113.72C96.1208 113.111 96.5646 112.47 96.9744 111.778L96.9872 111.759C99.1766 107.41 100.491 101.936 100.491 96.0152C100.491 95.3301 100.474 94.6513 100.44 93.9788L100.444 94.0668C100.444 79.6949 96.613 72.5048 88.9506 72.4964C88.7799 72.4838 88.5793 72.4775 88.3787 72.4775C85.1052 72.4775 82.1646 74.5956 80.1629 77.9581L80.1544 77.977C77.9735 82.3263 76.6632 87.7943 76.6632 93.7148C76.6632 94.3811 76.6803 95.041 76.7144 95.6946L76.7101 95.6067C76.6717 96.2415 76.6504 96.9831 76.6504 97.731C76.6504 103.224 77.8198 108.315 79.8087 112.495L79.7703 112.413C81.6866 115.417 84.4053 117.29 87.4142 117.29C87.6958 117.29 87.9733 117.271 88.2464 117.24L88.208 117.246C88.2464 117.246 88.2976 117.246 88.3446 117.246C89.6719 117.246 90.9566 116.963 92.1729 116.442L92.079 116.479L99.1467 122.545L101.067 117.661L101.046 117.648ZM118.749 116.586H104.721V73.1563H109.441V111.25H118.749V116.586ZM53.0188 84.5449C51.7939 97.643 48.9898 109.465 44.8883 120.056L45.059 119.572C43.4159 124.229 40.3088 127.472 36.6597 127.994L36.6171 128C35.5117 127.912 34.4831 127.522 33.5484 126.888L33.5996 126.919V123.041C34.1843 123.173 34.8587 123.248 35.5458 123.248C35.5842 123.248 35.6226 123.248 35.6653 123.248C35.7336 123.255 35.8061 123.255 35.883 123.255C37.1164 123.255 38.2474 122.595 39.1181 121.495L39.1095 121.501C40.0485 120.364 40.6503 118.667 40.6844 116.756C40.4582 114.003 40.0271 111.489 39.4083 109.12L39.4595 109.333L34.052 84.5449H38.9047L42.7842 103.08C43.4756 105.694 43.8768 108.724 43.8768 111.885C43.8768 111.891 43.8768 111.898 43.8768 111.898C45.934 103.966 47.496 94.7142 48.2899 85.1168L48.3283 84.5386L53.0188 84.5449ZM31.5937 116.586H26.6514C26.512 105.018 26.0325 93.4718 25.2131 81.9492H25.1704L17.6503 116.586H13.8902L6.42132 81.9492H6.37011C5.78682 93.476 5.4397 105.022 5.32873 116.586H0.821777C1.11484 101.146 1.84324 86.6672 3.00697 73.15H9.14001L16.2589 105.072H16.3016L23.4846 73.15H29.3231C30.6149 88.9759 31.376 103.455 31.6065 116.586H31.5937ZM88.3147 12.964C88.3062 12.964 88.2934 12.964 88.2805 12.964C87.7727 12.964 87.2819 13.0583 86.8124 13.2343L86.8551 13.2217V13.3223H86.9276C87.2947 14.1268 87.6702 14.8244 88.0757 15.4781L88.0672 15.4655C88.3531 16.3077 88.6006 17.1436 88.8866 17.9795L88.9592 17.8601C89.4244 17.3196 89.7188 16.49 89.7188 15.5598C89.7188 15.4466 89.7146 15.3398 89.706 15.2267V15.2392C89.4926 14.8684 89.4628 14.5039 89.2793 14.1393C89.0659 13.6114 88.6092 13.3537 88.319 12.9389L88.3147 12.964Z" fill="#DA2626"/>
</svg>
