<svg width="129" height="128" viewBox="0 0 129 128" fill="none" xmlns="http://www.w3.org/2000/svg">
<path fill-rule="evenodd" clip-rule="evenodd" d="M82.3833 118.131C79.2985 118.131 76.8026 115.623 76.8026 112.522C76.8026 109.421 79.2985 106.919 82.3833 106.919C85.4681 106.919 87.9642 109.421 87.9642 112.522C87.9642 115.623 85.4681 118.131 82.3833 118.131ZM65.2825 128C97.7817 128 95.753 113.834 95.753 113.834L95.7146 99.1594H64.7065V94.7531H108.028C108.028 94.7531 128.822 97.1273 128.822 64.1688C128.822 31.2102 110.678 32.3719 110.678 32.3719H99.8425V47.6719C99.8425 47.6719 100.425 65.9094 81.9866 65.9094H51.2282C51.2282 65.9094 33.9481 65.6352 33.9481 82.7031V110.919C33.9481 110.919 31.3241 128 65.2825 128ZM47.2665 9.86875C50.3513 9.86875 52.8409 12.3772 52.8409 15.4781C52.8409 18.5791 50.3513 21.0813 47.2665 21.0813C44.1817 21.0813 41.6858 18.5791 41.6858 15.4781C41.6858 12.3772 44.1817 9.86875 47.2665 9.86875ZM64.361 0C31.8682 0 33.897 14.1656 33.897 14.1656L33.9354 28.8406H64.9435V33.2469H21.6153C21.6153 33.2469 0.821777 30.8727 0.821777 63.8313C0.821777 96.7898 18.9722 95.6281 18.9722 95.6281H29.8011V80.3281C29.8011 80.3281 29.2186 62.0906 47.6634 62.0906H78.4153C78.4153 62.0906 95.6954 62.3648 95.6954 45.2969V17.0813C95.6954 17.0813 98.3194 0 64.361 0Z" fill="#DA2626"/>
</svg>
