<svg width="129" height="128" viewBox="0 0 129 128" fill="none" xmlns="http://www.w3.org/2000/svg">
<path d="M54.6701 127.918C38.6794 127.054 22.8747 124.038 13.1818 120.001C7.66068 117.701 3.4544 114.875 1.80383 112.356L0.821777 110.858V63.8488V16.84L1.59887 15.6578C5.07155 10.3751 16.1545 5.61267 31.6256 2.75518C36.8773 1.78513 44.4589 0.819105 50.6441 0.331976C56.9599 -0.165575 73.7005 -0.0898766 80.0006 0.465458C96.7451 1.93946 110.994 5.23939 119.774 9.67713C123.161 11.3885 126.635 14.1268 127.812 16.0117L128.822 17.6278L128.735 64.4944L128.649 111.361L127.839 112.594C127.393 113.273 126.047 114.607 124.848 115.56C117.547 121.359 101.885 125.649 81.3428 127.477C77.1558 127.849 58.9658 128.15 54.6701 127.918ZM84.1385 87.6377C84.077 87.5175 81.6866 85.9219 78.8264 84.0917C75.9662 82.2615 73.5028 80.678 73.3522 80.5729C73.2017 80.4677 73.7301 80.0956 74.5266 79.7457C75.323 79.3959 76.8489 78.4227 77.9175 77.5831C81.0425 75.1279 82.5169 72.095 82.5169 68.1224C82.5169 64.2114 80.9267 61.0559 77.7417 58.6472C74.5318 56.2192 70.8461 55.176 65.4787 55.176C57.2054 55.176 50.8516 58.7931 48.8235 64.6573C48.1259 66.6744 48.1297 70.7502 48.8308 72.5387C50.6597 77.2041 55.6408 80.5924 61.84 81.388C63.9378 81.6573 64.2219 81.7733 65.6521 82.9449C66.5021 83.6412 68.2463 85.031 69.5282 86.0334L71.8588 87.856H78.0547C81.4624 87.856 84.2 87.7578 84.1385 87.6377ZM62.8907 74.6394C61.3991 74.0567 60.8352 73.6044 59.9846 72.3088C59.3277 71.3082 59.2153 70.739 59.208 68.3738C59.2006 65.9705 59.3027 65.4512 59.9886 64.4076C61.1109 62.7 62.6574 61.8915 65.0498 61.7619C68.3798 61.5809 70.3021 62.8055 71.3095 65.7484C72.5447 69.3565 71.1864 73.1925 68.2229 74.4656C66.6682 75.1335 64.349 75.2092 62.8907 74.6394ZM35.428 81.3368C41.924 80.4137 45.6115 77.5832 45.6115 73.5199C45.6115 69.9151 43.2308 67.8146 36.6511 65.6138C32.8846 64.3539 31.5203 63.5631 31.5203 62.6391C31.5203 61.8733 32.815 61.0341 34.3222 60.8233C35.7939 60.6174 39.697 61.1254 42.0019 61.8229L43.934 62.4078V59.2034V55.9989L41.8371 55.6503C40.5411 55.4349 37.8179 55.3057 34.7076 55.3123C30.3019 55.3123 29.4392 55.3927 27.7812 55.886C22.9383 57.3266 20.6402 59.7805 20.6769 63.4718C20.7113 66.9274 23.1444 69.083 29.1996 71.0221C32.7724 72.1663 34.2044 73.0375 34.2044 74.0671C34.2044 76.255 29.3391 76.5242 24.1879 74.6214C22.7772 74.1003 21.5097 73.6315 21.3713 73.5796C21.233 73.5277 21.1198 75.0245 21.1198 76.906C21.1198 80.3115 21.1246 80.328 21.9475 80.5627C25.0464 81.4455 31.8954 81.8388 35.428 81.3368ZM109.693 78.1777V75.2868H103.821H97.9501V65.3571V55.4274H92.7498H87.5496V68.248V81.0686H98.6211H109.693V78.1777ZM73.4583 27.5173C83.7923 26.9803 91.5386 25.9663 98.3552 24.2586C105.146 22.5573 109.158 20.4988 110.055 18.2548C110.401 17.39 110.376 17.062 109.893 16.1139C107.726 11.8634 95.6237 8.59774 77.13 7.27368C69.2192 6.70719 54.8323 6.89084 47.2895 7.65426C35.7802 8.81942 26.4399 10.9837 22.2868 13.4476C13.8855 18.4323 22.7699 23.9148 43.4308 26.4952C52.3893 27.6141 63.9957 28.0092 73.4583 27.5173Z" fill="#DA2626"/>
</svg>
